<?xml version="1.0" encoding="utf-8"?>
<svg version="1.1" id="Layer_1" xmlns="http://www.w3.org/2000/svg" xmlns:xlink="http://www.w3.org/1999/xlink" x="0px" y="0px" viewBox="0 0 103.74 102.17" style="enable-background:new 0 0 103.74 102.17;" xml:space="preserve">
    <style type="text/css">.st0{fill:url(#SVGID_1_);}</style>
    <g>
        <linearGradient id="SVGID_1_" gradientUnits="userSpaceOnUse" x1="81.8221" y1="18.5364" x2="22.6376" y2="82.847">
            <stop offset="0" style="stop-color:#00EAFF" />
            <stop offset="0.5093" style="stop-color:#5F19A6" />
            <stop offset="1" style="stop-color:#E100FF" />
        </linearGradient>
        <path class="st0" d="M28.77,69.65v-8.82c0,0,0.06-2.4,6.85-2.4c7.84,0,7.82,2.4,7.82,2.4v8.15h17.07V61.5l-23.69-7
            c-6.04-2.97-8.06-5.37-8.06-11.99V31.68c0-8.53,5.37-11.41,11.99-11.41h4.89V2.82c0-1.74-1.59-3.05-3.3-2.73
            C18.25,4.56,0,25.69,0,51.08c0,25.37,18.21,46.48,42.28,50.98c1.75,0.33,3.37-1.01,3.37-2.79V82.6h-4.51
            C33.85,82.6,28.77,78.09,28.77,69.65z M57.83,2.83v17.43h5.18c8.63,0,12.08,4.99,12.08,14.67v6.62c0,0,0.03,2.4-7.54,2.4
            c-6.96,0-7.03-2.4-7.03-2.4v-7.67H43.44v7.1l24.17,6.71c5.66,2.69,7.48,5.18,7.48,11.89v10.26c0,7-4.12,12.75-11.89,12.75h-5.37
            v16.8c0,1.73,1.57,3.03,3.28,2.73c24.24-4.36,42.63-25.55,42.63-51.05c0-25.47-18.36-46.65-42.56-51.03
            C59.44-0.27,57.83,1.06,57.83,2.83z" />
    </g>
</svg>
